<svg xmlns="http://www.w3.org/2000/svg" xmlns:xlink="http://www.w3.org/1999/xlink" width="100" zoomAndPan="magnify" viewBox="0 0 75 74.999997" height="100" preserveAspectRatio="xMidYMid meet" version="1.0"><defs><clipPath id="520a6f0a04"><path d="M 0.582031 9 L 36 9 L 36 65.835938 L 0.582031 65.835938 Z M 0.582031 9 " clip-rule="nonzero"/></clipPath><clipPath id="50634f7fce"><path d="M 37 9 L 73 9 L 73 65.835938 L 37 65.835938 Z M 37 9 " clip-rule="nonzero"/></clipPath></defs><g clip-path="url(#520a6f0a04)"><path fill="#ffffff" d="M 24.429688 40.234375 C 22.394531 41.011719 20.164062 41.496094 17.839844 41.496094 C 8.289062 41.445312 0.582031 34.175781 0.582031 25.253906 C 0.582031 16.335938 8.289062 9.015625 17.839844 9.015625 C 27.386719 9.015625 35.097656 16.289062 35.097656 25.253906 C 37.519531 49.105469 9.308594 65.976562 9.308594 65.976562 L 7.078125 63.308594 C 7.078125 63.261719 25.738281 48.816406 24.429688 40.234375 Z M 24.429688 40.234375 " fill-opacity="1" fill-rule="nonzero"/></g><g clip-path="url(#50634f7fce)"><path fill="#ffffff" d="M 61.320312 40.234375 C 59.285156 41.011719 57.054688 41.496094 54.726562 41.496094 C 45.179688 41.496094 37.472656 34.222656 37.472656 25.253906 C 37.472656 16.289062 45.179688 9.015625 54.726562 9.015625 C 64.277344 9.015625 71.984375 16.289062 71.984375 25.253906 C 74.410156 49.105469 46.195312 65.976562 46.195312 65.976562 L 43.964844 63.308594 C 43.964844 63.261719 62.628906 48.816406 61.320312 40.234375 Z M 61.320312 40.234375 " fill-opacity="1" fill-rule="nonzero"/></g></svg>